# xmcd CD database file
#
# Track frame offsets:
#	150
#	11850
#	32197
#	44907
#	55740
#	68430
#	77272
#	95565
#	110645
#	126630
#	141370
#	153007
#	166627
#	177097
#
# Disc length: 2493 seconds
#
# Revision: 0
# Processed by: cddbd v1.5.2PL0 Copyright (c) Steve Scherf et al.
# Submitted via: jetAudio 7
#
DISCID=b709bb0e
DTITLE=Chris Le Roux - Grootste Treffers
DYEAR=1900
DGENRE=Folk
TTITLE0=Drome Van Rietbaai
TTITLE1=Hantamberge
TTITLE2=Maanlig Op Die Vaalrivier Se Walle
TTITLE3=Die Troebadoer
TTITLE4=As Dit Nag Is In Die Bosveld
TTITLE5=Meisie Van My Drome
TTITLE6=groot Karoo
TTITLE7=Boesmanland
TTITLE8=Ek Gaan Huistoe
TTITLE9=In Die Skadu Van Ou Tafelberg
TTITLE10=Ruk En rol
TTITLE11=Daar Doer In Die Bosveld
TTITLE12=Mooi Is Die Lewe Nou
TTITLE13=My Mooi Ou Karooland
EXTD=ID3G: 80
EXTT0=
EXTT1=
EXTT2=
EXTT3=
EXTT4=
EXTT5=
EXTT6=
EXTT7=
EXTT8=
EXTT9=
EXTT10=
EXTT11=
EXTT12=
EXTT13=
PLAYORDER=
